<?xml version="1.0" encoding="UTF-8"?>
<svg xmlns="http://www.w3.org/2000/svg" xmlns:xlink="http://www.w3.org/1999/xlink" width="267.946" height="269" viewBox="0 0 267.946 269">
  <defs>
    <linearGradient id="linear-gradient" x1="0.482" y1="-0.027" x2="0.538" y2="1.019" gradientUnits="objectBoundingBox">
      <stop offset="0.016" stop-color="#b89d5f"></stop>
      <stop offset="0.067" stop-color="#f8f5c2"></stop>
      <stop offset="0.095" stop-color="#dacc93"></stop>
      <stop offset="0.167" stop-color="#b89d5f"></stop>
      <stop offset="0.224" stop-color="#ab8e51"></stop>
      <stop offset="0.306" stop-color="#947238"></stop>
      <stop offset="0.343" stop-color="#a08045"></stop>
      <stop offset="0.394" stop-color="#b89d5f"></stop>
      <stop offset="0.409" stop-color="#c1aa6d"></stop>
      <stop offset="0.437" stop-color="#dacc94"></stop>
      <stop offset="0.466" stop-color="#f8f5c2"></stop>
      <stop offset="0.497" stop-color="#f1ecb8"></stop>
      <stop offset="0.55" stop-color="#e0d59e"></stop>
      <stop offset="0.618" stop-color="#c5af73"></stop>
      <stop offset="0.647" stop-color="#b89d5f"></stop>
      <stop offset="0.65" stop-color="#bba264"></stop>
      <stop offset="0.665" stop-color="#d1bf86"></stop>
      <stop offset="0.681" stop-color="#e2d7a0"></stop>
      <stop offset="0.698" stop-color="#eee7b3"></stop>
      <stop offset="0.715" stop-color="#f5f1be"></stop>
      <stop offset="0.733" stop-color="#f8f5c2"></stop>
      <stop offset="0.739" stop-color="#f4efbc"></stop>
      <stop offset="0.773" stop-color="#ded29a"></stop>
      <stop offset="0.808" stop-color="#cdba80"></stop>
      <stop offset="0.844" stop-color="#c1aa6d"></stop>
      <stop offset="0.881" stop-color="#baa062"></stop>
      <stop offset="0.921" stop-color="#b89d5f"></stop>
    </linearGradient>
    <linearGradient id="linear-gradient-2" x1="0.481" y1="-0.042" x2="0.538" y2="1.025" xlink:href="#linear-gradient"></linearGradient>
    <linearGradient id="linear-gradient-3" x1="0.477" y1="-0.133" x2="0.578" y2="2.604" xlink:href="#linear-gradient"></linearGradient>
  </defs>
  <g id="Group_713" data-name="Group 713" transform="translate(-815 -81)">
    <path id="Path_559" data-name="Path 559" d="M240.965,229.1a17.186,17.186,0,0,1-15.364-8.392,17.722,17.722,0,0,1-2.514-8.968c-.021-2.515-.166-5.806,1.381-7.978a12.566,12.566,0,0,1,3.717-3.635c.716-.425,1.221-1.223,2.223-1.245,5.083-.111,8.529,3.292,13.315,4.351a21.1,21.1,0,0,0,13.6-1.467c.554-.266,1.192-.83.9-1.372-6.922,3.1-13.666,1.486-19.986-1.97a21.859,21.859,0,0,1-2.46-1.776,1.121,1.121,0,0,1-.208-.318,1.778,1.778,0,0,1,.387-.164,7.821,7.821,0,0,1,3.616.63c3.084.935,2.814,1.352,5.876-.321,2.191-1.2,4.693-1.5,6.928-2.567a1.55,1.55,0,0,1,1.282.134,1.347,1.347,0,0,0,1.6.009,1.429,1.429,0,0,1,1.837.175,3.7,3.7,0,0,0,3.227,1.03c.606-.043,1.217-.008,1.826-.007a.78.78,0,0,1,.8.488c1.316,2.16,3.525,2.874,5.865,3.137,1.769.2,3.3-.756,4.927-1.283.582-.189,1.185-.242,1.473-.785a4.729,4.729,0,0,0,.465-1.626,6.777,6.777,0,0,0-.889-3.961c-.568-1.1-.529-1.124.308-1.995,1.271-1.322,1.5-2.14.562-3.69A23.438,23.438,0,0,1,273.918,181c-.218-.61-.3-.912-.951-.818-1.007.146-1.491-.27-2.028-1.206-.561-.978-.553-2.055-1.032-3.009a3.774,3.774,0,0,1-.154-1.3c-.089-.985-.307-1.2-1.356-1.326-.15-.018-.3,0-.457,0-.378-.011-.533-.087-.241-.484.156-.212.111-.562.233-.811,1.052-2.124.3-3.738-1.269-5.284a14.646,14.646,0,0,1-2-1.83,12.636,12.636,0,0,1-1.74-3.86,7.049,7.049,0,0,0-2.072-2.795c-1.144.315-2.133-.414-3.233-.481a16.816,16.816,0,0,0-4.292.677,5.8,5.8,0,0,1-2.582.112,2.448,2.448,0,0,1-1.69-1.484,6.433,6.433,0,0,0-2.2-2.263,2.654,2.654,0,0,0-2-.689c-.747.1-1.52-.008-2.279.027a6.333,6.333,0,0,1-3.276-.917,5.369,5.369,0,0,0-3.728-.916c-1.141,0-2.283.029-3.423-.011-.714-.025-1.281.017-1.448.9-.038.2-.327.709-.792.163a11.605,11.605,0,0,0-2.107-2.075c-.6-.418-1.31-1.352-2.208-.346-1.107-.149-1.873.671-2.735,1.1-.549.272-.706.023-.817-.212-.329-.7-.36-1.752-.88-2.084-.6-.382-1.6-.142-2.421-.171a.723.723,0,0,1-.227,0c-2.475-.974-5.054-.208-7.573-.453-.771.591-1.677.408-2.549.468-.621.043-.677-.232-.769-.772-.162-.942-.5-1.7-1.825-1.584-.771.065-1.575-.617-2.4-.733-1.356-.191-2.5-1.026-3.917-1.061-1.46-.036-2.877-.6-4.378-.441a9.674,9.674,0,0,1-2.279,0,3.03,3.03,0,0,0-3.129,1.3,2.45,2.45,0,0,1-2.32,1.03,52.4,52.4,0,0,0-5.7,0c-1.846.112-3.667.4-4.33,2.62-.159.531-.388,1.279-1.351,1.031-.471-.121-.976.223-1.431.332-1.816.433-3.583,1.259-5.527,1.014a1.47,1.47,0,0,0-1.4.493,3.092,3.092,0,0,1-2.365.9,25.431,25.431,0,0,0-3.235.432,1.077,1.077,0,0,0-.962,1.041c-.115.855-.3,1.7-.446,2.55a1.092,1.092,0,0,1-1.03.975c-.854.124-1.707.271-2.546.468a.814.814,0,0,0-.511.5,3.843,3.843,0,0,0-.018,1.135c.037.5-.177.667-.656.629a7.483,7.483,0,0,0-5.136,1.37c-.592.426-1.1,1.169-1.737,1.293-1.964.382-3.587,1.849-5.814,1.5a3.893,3.893,0,0,0-3.992,2.155,3.254,3.254,0,0,1-1.506,1.472,8.024,8.024,0,0,0-2.1,1.529c-.621.6-1.074,1.378-1.64,2.044-.286.337-.383.609-.041.948,1.931,1.913,3.735,3.987,6.373,5,.263.1.633.14.76.335.58.885,1.2.424,1.861.164.406-.16.749-.911,1.3-.226.359.445,1.032.689.91,1.453a3.927,3.927,0,0,0,0,.911c.042.531-.243.651-.69.589-2.555-.353-5.028.653-7.571.45-.719-.058-1.037.307-1.348.894a4.43,4.43,0,0,1-3.217,2.343c-1.3.273-2.52.891-3.8,1.263-.492.143-.721.226-.752.82-.075,1.462-.279,2.918-.431,4.375-.993.711.115,1.416.006,2.133-.24,1.591,1.092.691,1.65,1.023.186.111.331.322.526.381a7.213,7.213,0,0,0,1.862.442,4.438,4.438,0,0,1,2.605.919,11.421,11.421,0,0,0,6.8,2.306q2.168-.026,4.337,0a5.219,5.219,0,0,1,1.306.148c2.012.553,4.646.672,6.067-1.309a1.978,1.978,0,0,1,1.082-.652c1.13-.274,1.14-.238,1.154-1.276.005-.38.021-.762,0-1.14-.034-.522.035-.877.712-.82a1.129,1.129,0,0,0,.762-.325c1.029-.993.78-2.3.821-3.535.03-.91-.725-.943-1.257-1.286-.389-.25-.945-.616-.34-1.249.229-.24.286-.767.526-.846a1.743,1.743,0,0,1,1.319.033,8.3,8.3,0,0,0,5.4,1.291c.642-.05.92.362,1.186.816.033.057-.017.157.008.224.44,1.22.441,1.216,1.662,1.248,1.39.037,2.868-.312,4.1.552a4.6,4.6,0,0,0,3.092.825c.682-.045,1.372.032,2.053-.017a3.623,3.623,0,0,1,2.754,1.091,6.058,6.058,0,0,0,4.29,1.2c1.054-1.088,2.155-.205,2.943.225a3.962,3.962,0,0,0,4.246.022,1.905,1.905,0,0,1,2.608.349,1.954,1.954,0,0,0,1.969.783,2.085,2.085,0,0,1,1.118.038c1.914.937,4.076,1.442,5.531,3.2.58.7,1.289,1.291,1.92,1.951.169.176.417.5.357.624a1.119,1.119,0,0,1-.656.546,4.382,4.382,0,0,1-1.136.022,17.668,17.668,0,0,0-6.347,1.207,10.182,10.182,0,0,1-2.484.6,12.677,12.677,0,0,1-6.767-1.277,23.384,23.384,0,0,1-6.948-4.71,19.8,19.8,0,0,1-3.079-3.515c-.112-.188-.416-.262-.631-.389-.032.291.1.437.139.717.029.19.107.493.136.683.054.348.137.842-.045,1.036s-.69.178-1.034.125-.635-.359-.968-.4c-1.683-.185-3.373-.313-5.058-.48-.2-.019-.826-.12-1.029-.162-.138-.029.148-.024,0,0a.706.706,0,0,0,.385.4c.6.211,1.067.486,1.669.693,1.929.664,3.875,1.263,5.766,2.059,2.751,1.159,5,3.067,7.369,4.762a17.465,17.465,0,0,0,11,3.7c2.889-.067,5.713-.673,8.584-.928a12.111,12.111,0,0,1,6.379,1.63c1.767.933,3.016,2.1,2.7,4.34a16.507,16.507,0,0,0-.116,2.508,22.908,22.908,0,0,1-.11,3.541,21.554,21.554,0,0,1-1.871,6.258A24.809,24.809,0,0,1,195.7,236.95m-47.434-49.276a.63.63,0,0,1-.527.255,7.15,7.15,0,0,0-3.568.721,1.636,1.636,0,0,1-2.17-.379A1.444,1.444,0,0,0,140.34,188a1.179,1.179,0,0,0-.727,1.464c.121.548-.092.831-.72.778-.6-.052-1.211.012-1.815-.017-.849-.041-1.658-.038-2.16.825-.428.736-1.16.552-1.812.528-.116,0-.351-.4-.313-.446.612-.811.2-2.382,2.027-2.352.777.013,1.569-.875,2.356-1.351,1.6-.965,3.206-1.886,5.183-1.758,1.407-.235,2.67.693,4.122.513.5-.062,1.106.556,1.626.917A.629.629,0,0,1,148.269,187.674Zm9.94-20.848a4.288,4.288,0,0,1-2.787,1.586,8.857,8.857,0,0,0-5.826,2.937c-.941,1.084-.95,1.076-2.024,1.075a1.7,1.7,0,0,1-.228,0c-.43-.06-.861-.124-1.291-.187a4.426,4.426,0,0,1,.593-1.53,10.611,10.611,0,0,1,2.315-1.512,24.331,24.331,0,0,1,7.78-2.715c.334-.072.624-.339.959-.426a.655.655,0,0,1,.577.185A.612.612,0,0,1,158.209,166.826Zm71.228,18.381a1.069,1.069,0,0,1,1.053.943c.085.339.231.663.338,1,.345,1.084-.086,1.607-1.261,1.726-.79.08-1.646-.367-2.4.273a1.141,1.141,0,0,1-.742-.513,7.048,7.048,0,0,1-.036-1.578c-.017-1.857-.017-1.857,1.909-1.852C228.678,185.205,229.058,185.193,229.437,185.207Zm-64.558-19.986c.631-1.032,1.8-1.151,2.814-1.441a2.089,2.089,0,0,1,.436-.072c.448-.031.925.043,1.381.043a11.127,11.127,0,0,1,2.449.145,3.7,3.7,0,0,1,.8.286,4.718,4.718,0,0,0,1.512.2,16.52,16.52,0,0,1-1.488,1.11,1.861,1.861,0,0,1-.873.083,14.964,14.964,0,0,0-3.182.056,20.563,20.563,0,0,1-2.826.879c-.266.024-.385.661-.833.118A1.12,1.12,0,0,1,164.879,165.221Zm14.746,8.482a8.682,8.682,0,0,1-5.581,1.866c-1.592-.181-2.705.973-4.151,1.07-.337.023-.652.291-.993.337-.928.128-.939.1-1.8,1.074a1.849,1.849,0,0,1-1.741.78,13.785,13.785,0,0,0-1.823-.016c-.381,0-.763.026-1.14-.006-.431-.037-.858-.126-1.287-.192.142-.465.148-1.074.455-1.366.72-.684,1.167-1.869,2.5-1.642a10.975,10.975,0,0,1,4.494-1.829c.259-.04.469-.382.728-.425,1.148-.189,2.3-.328,3.459-.471,1.772-.218,3.578.369,5.354-.293.412-.154,1.037.188,1.529.388A.843.843,0,0,1,179.625,173.7Zm3.865-15c-1.119-.686-2.312-.373-3.472-.412-1.234-.043-2.5-.18-3.55.776a.981.981,0,0,1-.839.094c-.183-.066-.427-.529-.367-.611a4.758,4.758,0,0,1,1.1-1.136c.579-.391,1.261-.625,1.859-.99a9.693,9.693,0,0,1,1.963-1.3,20.044,20.044,0,0,1,3.44-.493,12.506,12.506,0,0,1,1.364-.008h2.276c.3,0,.8.115.88-.018.841-1.415,2.419-.8,3.6-1.258,1.12-.435,2.543-.094,3.832-.094,1.517,0,3.037-.048,4.551.019a3.615,3.615,0,0,0,2.291-.518,2.294,2.294,0,0,1,2.835.038,3.251,3.251,0,0,0,.583.234,2.977,2.977,0,0,0-.585.233c-1,.669-2.336.668-3.2,1.664a1.3,1.3,0,0,1-1.255.121c-.971-.646-2.011-.348-3.021-.413-.445-.029-1.027-.136-1.305.089-.246.2-.109.828-.24,1.236a.785.785,0,0,1-.538.471c-.983.048-1.972,0-2.956.043-.2.009-.563.288-.557.429.011.243.253.476.4.713a11.115,11.115,0,0,1-1.778.639,17.656,17.656,0,0,1-1.815.032c-1.382.111-2.807-.32-4.152.419A1.566,1.566,0,0,1,183.49,158.7Zm24.473,24.767c.263.091.492.294.758.357a8.031,8.031,0,0,0,1.091.115,10.521,10.521,0,0,1-.4,1.094c-.526,1.081-.536,1.076-1.777,1.085-.3,0-.606,0-.908,0l-2.205-.161c-.175-.912-.406-1.818-.506-2.737-.073-.675.306-.941.947-.747C205.974,182.778,206.969,183.121,207.963,183.466Zm-15.681-.018c-.246.287-.569.513-.794.814a2.157,2.157,0,0,1-2.367.9,3.326,3.326,0,0,1-2.447-.606c-.686-.336-1.247-.4-.57-1.5.474-.772.092-2.07.092-3.133,0-.684-.023-1.368.006-2.05.031-.736.112-1.47.171-2.2a7.693,7.693,0,0,1,2.3.9,16.728,16.728,0,0,1,3.374,3.326c.092.139,0,.4-.011.608a2.205,2.205,0,0,0-.485-.2,2.806,2.806,0,0,0-1.087-.094c-.57.147-.893-1.03-1.523-.241.475.322.93.678,1.428.957.551.308,1.175.491,1.7.827A1.047,1.047,0,0,1,192.281,183.448Zm2.3-1.123c-.458-.059-.526-.719-.673-1.241a8.141,8.141,0,0,0-2.028-3.678.72.72,0,0,1-.182-.58c.036-.146.294-.236.606-.46a6.139,6.139,0,0,1,1.17.865c.257.3.291.779.489,1.143.388.715.8,1.406,1.8,1.361.565-.025.545.369.4.746a3.091,3.091,0,0,1-.482.924C195.354,181.775,194.907,182.368,194.582,182.326Zm3.13,2.858c-.616-.127-1.419-.187-1.757-.6a1.438,1.438,0,0,1,.166-1.821c.49-.581.712-1.381,1.173-1.995a1.74,1.74,0,0,1,1.1-.561.9.9,0,0,1,1.019.925c.026.936.435,1.368,1.362,1.33.886-.036,1.415.291,1.417,1.277,0,.246.3.477.386.74.133.4.068.737-.479.722-.227-.006-.455,0-.922,0a2.732,2.732,0,0,1-.8-.221,1.848,1.848,0,0,0-1.859-.016A1.4,1.4,0,0,1,197.712,185.184Zm4.8,12.233a5.831,5.831,0,0,1-1.085-.429c-.311-.2-.511-.566-.817-.775-.522-.356-1.1-.922-1.634-.906-.974.029-.976-.423-.914-1.094.077-.827.411-1.191,1.193-1.244.376-.025.755,0,1.132,0a7.354,7.354,0,0,0,.905-.006c.662-.083.946.127.894.847a4.124,4.124,0,0,0,.413,2.545C202.752,196.6,202.554,197.056,202.516,197.417Zm10.161,1.4c0,.226,0,.454,0,.68a1.889,1.889,0,0,1-2.149,2.107,4.4,4.4,0,0,1-2.76-.977c-2.1-1.821-2.939-4.321-3.754-6.836a2.065,2.065,0,0,1,0-.9c.084-.564.276-.21.536-.085,1.079.522,2.327.483,3.431,1.029a1.4,1.4,0,0,0,1.661-.3c.239-.266.821-.547,1.05-.432a2.157,2.157,0,0,1,1.043,1.114c.464,1.491.787,3.026,1.164,4.544Zm4.551-4.334a.844.844,0,0,1-1.5.371c-1.111-1.35-2.179-2.736-3.222-4.14a1.842,1.842,0,0,1-.271-1.018,7.782,7.782,0,0,0-.642-3.623,2.818,2.818,0,0,1,.237-2.381,3.357,3.357,0,0,0,.369-2.134,1.376,1.376,0,0,1,.875-1.377,3.658,3.658,0,0,1,3.728.012,1.241,1.241,0,0,1,.338.288c-.141,1.233.02,2.322-.42,3.048-.537.884-.174,1.419.035,2.181a22.926,22.926,0,0,1,.9,4.633A20.244,20.244,0,0,1,217.227,194.479Zm.566-34.244c-.187.1-.377.32-.549.3-2.092-.2-4.079.735-6.191.508a5.024,5.024,0,0,0-3.456.412.517.517,0,0,1-.443,0c-.162-.088-.375-.254-.386-.4s.176-.474.288-.479a16.335,16.335,0,0,0,4.469-1.313,8.322,8.322,0,0,1,1.607-.5,32.359,32.359,0,0,1,3.436-.035c2.3-.346,4.752.809,7.3.457,1.4.7,2.9.391,4.364.473.148.008.284.245.425.375-.174.174-.341.489-.524.5-.984.05-1.973.049-2.959.017a8.35,8.35,0,0,0-4.45.816c-.444.243-1.071.42-1.276-.587A1.074,1.074,0,0,0,217.793,160.236Zm.823,21.777c.025-.4-.207-.935.562-.926a1.115,1.115,0,0,1,1.257.948,10.237,10.237,0,0,1-.462,3.85.443.443,0,0,1-.343.217c-.194-.026-.488-.106-.541-.242a8.08,8.08,0,0,1-.462-1.6,8.227,8.227,0,0,1-.015-1.345C218.613,182.612,218.6,182.312,218.616,182.013Zm1.4,7.272c.47-1.341.295-2.814,1.062-4.11.391-.663.693-1.02,1.465-.873.849-.169.994.2,1.18,1.04.135.611.6,1.385.313,1.843-.659,1.044-.245,2.5-1.364,3.306-.6.433-.878,1.382-1.762,1.311C220.52,191.771,219.786,189.955,220.02,189.285ZM225.2,199.8a8.914,8.914,0,0,0-3.842,3.324c-.349.533-1.015.793-.935,1.636.074.785-.01.782-1.012,1.8a6.487,6.487,0,0,0-.646.927l-.208-1.289c-.352-2.452,1.6-3.545,2.967-4.907a13.874,13.874,0,0,1,2.653-1.772,1.9,1.9,0,0,1,.835-.158c.125-.009.257.1.386.15C225.329,199.614,225.287,199.762,225.2,199.8Zm8.177-4.916a2.771,2.771,0,0,0-.889.359,5.438,5.438,0,0,1-.781,0c-.822-.179-1.592-.8-2.492-.316-.748.4-1.482.828-2.23,1.227-.12.064-.36-.012-.419.068a.95.95,0,0,1-1.375.276c-.391-.334.011-.888.095-1.367.4-2.293,1.949-3.424,3.875-4.258a7.642,7.642,0,0,1,6.308,0,16.535,16.535,0,0,1,1.709.823c.123.071.164.564.139.573C235.784,192.815,235.13,194.67,233.373,194.888Zm11.877.88a9.38,9.38,0,0,1-2.2,1.227,2.221,2.221,0,0,1-1.793-.414,5.682,5.682,0,0,0-4.224-1.342c-.647.008-.794-.243-.463-.809a7.646,7.646,0,0,1,1.125-1.565,3.368,3.368,0,0,1,1.571-1.061c.362-.06.858.582,1.265.943a11.761,11.761,0,0,1,1.121,1.121,2.224,2.224,0,0,0,2.119.958,3.514,3.514,0,0,1,1.391.424,2.434,2.434,0,0,1,.372.2A1.446,1.446,0,0,1,245.251,195.768Z" transform="translate(770.807 -16.299)" fill="#a3792e"></path>
    <path id="Path_560" data-name="Path 560" d="M214.361,275.81c4.621,5.669,12.524,7.136,19.42,6.08,3.451-.528,6.9-1.093,10.38-1.385a53.092,53.092,0,0,1,5.978-.2,16.876,16.876,0,0,1,5.711.676,69.745,69.745,0,0,0-11.46,1.005c-8.5,1.674-16.687,4.589-24.837,7.474-2.152.761-4.3,1.547-6.466,2.254-4.682,1.524-9.355,3.08-14.075,4.479-22.257,6.6-48.273,7.295-70.219-.913-12.986-4.856-24.4-15.705-28.4-22.865a71.187,71.187,0,0,0,9.106,7.522,65.556,65.556,0,0,0,27.9,12.611c14.381,2.809,32.68,3.48,46.061-3.5,6.387-3.332,11.277-8.115,13.188-15.184.855-3.163,1.983-9.437-.188-12.347a5.362,5.362,0,0,0-1.582-1.322" transform="translate(783.01 -69.393)" fill="#a3792e"></path>
    <path id="Path_561" data-name="Path 561" d="M281.629,306.193a19.4,19.4,0,0,0-2.236-.412l-.331-.048a70.026,70.026,0,0,0-25.968,1.04c-3.011.708-6.2,1.587-9.74,2.691-4.937,1.535-9.917,3.227-14.734,4.862-6.136,2.085-12.48,4.239-18.786,6.087-12.639,3.7-29.435,7.782-47.228,6.4a105.615,105.615,0,0,1-23.156-4.423,102.964,102.964,0,0,1-11.05-4.137,73.3,73.3,0,0,1-9.836-4.974l-1.911-1.212,1.531,1.667c2.951,3.212,7.394,5.914,10.6,7.616a95.278,95.278,0,0,0,13.9,5.52,95.521,95.521,0,0,0,30.5,4.8,112.712,112.712,0,0,0,18.286-1.519c11.9-1.958,23.295-6.222,34.314-10.346,6.88-2.575,14-5.237,21.162-7.313q1.271-.362,2.539-.731c2.26-.653,4.6-1.329,6.909-1.939,1.6-.422,3.166-.8,4.649-1.124,3.359-.733,6.778-1.193,9.971-1.581a54.867,54.867,0,0,1,5.532-.326q1.659-.031,3.319-.016l3.964,0Z" transform="translate(775.518 -90.032)" fill="#fff"></path>
    <path id="Path_562" data-name="Path 562" d="M15.8,285.36A133.282,133.282,0,0,1,110.045,57.832,132.276,132.276,0,0,1,191.7,85.754,134.5,134.5,0,1,0,183.617,302.3,133.379,133.379,0,0,1,15.8,285.36Z" transform="translate(841.472 24.45)" fill="url(#linear-gradient)"></path>
    <path id="Path_563" data-name="Path 563" d="M111.345,63.335C43.2,67.716-1.587,110.889-16.5,165.869a133.952,133.952,0,0,0-3.007,28.267A132.764,132.764,0,0,0,113.252,326.9a131.853,131.853,0,0,0,71.727-21,129.578,129.578,0,1,1,9.79-213.546C172.047,73.087,142.965,61.3,111.345,63.335Z" transform="translate(838.264 21.428)" fill="url(#linear-gradient-2)"></path>
    <path id="Path_564" data-name="Path 564" d="M333.781,107.471a129.306,129.306,0,0,1,29.814,55.78,129.436,129.436,0,0,0-35.331-64.215,131.774,131.774,0,0,0-84.905-38.58A131.416,131.416,0,0,1,333.781,107.471Z" transform="translate(717.131 22.65)" fill="url(#linear-gradient-3)"></path>
    <g id="Group_708" data-name="Group 708" transform="translate(856.673 253.212)">
      <path id="Path_565" data-name="Path 565" d="M55.4,398.841h.877a3.3,3.3,0,0,0,1.479-.26.857.857,0,0,0,.5-.812V377.326H53.482a1.708,1.708,0,0,0-1.722,1.267,9.861,9.861,0,0,0-.52,2.958h-.422v-5.006H66.742v5.006H66.32a9.913,9.913,0,0,0-.52-2.958,1.709,1.709,0,0,0-1.723-1.267H59.3v20.443a.856.856,0,0,0,.5.812,3.3,3.3,0,0,0,1.478.26h.878v.455H55.4Z" transform="translate(-50.817 -376.22)" fill="#fff"></path>
      <path id="Path_566" data-name="Path 566" d="M99.719,396.4a4.87,4.87,0,0,0,1.154,1.723,2.744,2.744,0,0,0,1.982.715v.455h-1.332a2.443,2.443,0,0,1-1.934-.942,6.417,6.417,0,0,1-1.219-2.47l-.293-1.138a32.081,32.081,0,0,0-.959-3.217,5.207,5.207,0,0,0-1.153-1.885q-.781.066-1.235.065H89.075v8.061a.856.856,0,0,0,.5.812,3.3,3.3,0,0,0,1.478.26h.878v.455h-6.76v-.455h.878a3.3,3.3,0,0,0,1.478-.26.856.856,0,0,0,.5-.812v-19.7a.857.857,0,0,0-.5-.812,3.312,3.312,0,0,0-1.478-.26h-.878v-.456H94.73q3.38,0,4.956,1.723a6.912,6.912,0,0,1,1.577,4.842,7.642,7.642,0,0,1-1.072,4.225,5.032,5.032,0,0,1-3.348,2.145A3.1,3.1,0,0,1,98,390.96a22.912,22.912,0,0,1,.861,2.714A23.9,23.9,0,0,0,99.719,396.4Zm-4.956-7.475a5.208,5.208,0,0,0,4.16-1.544,6.332,6.332,0,0,0,1.332-4.274,6.257,6.257,0,0,0-1.332-4.274,5.271,5.271,0,0,0-4.16-1.511H89.075v11.6Z" transform="translate(-66.65 -376.22)" fill="#fff"></path>
      <path id="Path_567" data-name="Path 567" d="M137.769,393.9l-.455,5.4H121.583v-.455h.877a3.3,3.3,0,0,0,1.479-.26.857.857,0,0,0,.5-.812v-19.7a.858.858,0,0,0-.5-.812,3.313,3.313,0,0,0-1.479-.26h-.877v-.456h15.731v5.006h-.423a9.914,9.914,0,0,0-.52-2.958,1.71,1.71,0,0,0-1.723-1.267h-9.166v9.458h6.923a1.183,1.183,0,0,0,1.235-.813,10.382,10.382,0,0,0,.423-2.535h.455v7.475h-.455a10.391,10.391,0,0,0-.423-2.535,1.184,1.184,0,0,0-1.235-.813h-6.923v10.953h9.328q1.235,0,1.836-1.511a10.012,10.012,0,0,0,.7-3.1Z" transform="translate(-83.427 -376.22)" fill="#fff"></path>
      <path id="Path_568" data-name="Path 568" d="M171.4,393.9l-.455,5.4H155.218v-.455h.878a3.3,3.3,0,0,0,1.478-.26.857.857,0,0,0,.5-.812v-19.7a.858.858,0,0,0-.5-.812A3.312,3.312,0,0,0,156.1,377h-.878v-.456h15.731v5.006h-.423a9.911,9.911,0,0,0-.52-2.958,1.709,1.709,0,0,0-1.723-1.267h-9.165v9.458h6.923a1.184,1.184,0,0,0,1.235-.813,10.418,10.418,0,0,0,.422-2.535h.455v7.475H167.7a10.427,10.427,0,0,0-.422-2.535,1.184,1.184,0,0,0-1.235-.813h-6.923v10.953h9.327q1.235,0,1.836-1.511a10,10,0,0,0,.7-3.1Z" transform="translate(-98.926 -376.22)" fill="#fff"></path>
      <path id="Path_569" data-name="Path 569" d="M208.681,377.261a.857.857,0,0,0-.5.812v19.7a.856.856,0,0,0,.5.812,3.3,3.3,0,0,0,1.479.26h.877v.455h-6.76v-.455h.877a3.306,3.306,0,0,0,1.479-.26.856.856,0,0,0,.5-.812V387.433H193.357v10.336a.856.856,0,0,0,.5.812,3.3,3.3,0,0,0,1.478.26h.878v.455h-6.76v-.455h.877a3.3,3.3,0,0,0,1.479-.26.856.856,0,0,0,.5-.812v-19.7a.857.857,0,0,0-.5-.812,3.313,3.313,0,0,0-1.479-.26h-.877v-.456h6.76V377h-.878a3.31,3.31,0,0,0-1.478.26.857.857,0,0,0-.5.812v8.581h13.781v-8.581a.857.857,0,0,0-.5-.812,3.314,3.314,0,0,0-1.479-.26h-.877v-.456h6.76V377h-.877A3.313,3.313,0,0,0,208.681,377.261Z" transform="translate(-114.704 -376.22)" fill="#fff"></path>
      <path id="Path_570" data-name="Path 570" d="M237.959,398.143q-1.95-1.478-1.951-5.087V378.073a.858.858,0,0,0-.5-.812,2.709,2.709,0,0,0-1.251-.26H233.7v-.456h5.655V377H238.8a2.7,2.7,0,0,0-1.251.26.857.857,0,0,0-.5.812v15.081q0,3.251,1.739,4.469a8.767,8.767,0,0,0,5.054,1.219q6.338,0,6.338-5.688V378.073a.859.859,0,0,0-.5-.812,2.706,2.706,0,0,0-1.251-.26h-.553v-.456h5.655V377h-.553a2.7,2.7,0,0,0-1.251.26.857.857,0,0,0-.5.812v14.983q0,3.607-1.95,5.087a11.554,11.554,0,0,1-11.31,0Z" transform="translate(-135.092 -376.22)" fill="#fff"></path>
      <path id="Path_571" data-name="Path 571" d="M278.479,396.3q-2.584-3.038-2.584-8.662a14.738,14.738,0,0,1,1.251-6.37,8.847,8.847,0,0,1,3.575-3.981,10.721,10.721,0,0,1,5.476-1.349,8.963,8.963,0,0,1,3.494.634,10.537,10.537,0,0,1,2.422,1.349,1.409,1.409,0,0,0,.293.162q.292,0,.292-.617v-1.365h.65v5.655h-.423a5.047,5.047,0,0,0-2.064-3.64,7.483,7.483,0,0,0-4.664-1.4,8.328,8.328,0,0,0-6.923,2.974,12.374,12.374,0,0,0-2.372,7.947,12.864,12.864,0,0,0,2.242,7.963q2.242,2.958,6.858,2.957a14.358,14.358,0,0,0,3.689-.5,6.943,6.943,0,0,0,3.136-1.706v-6.7a1.184,1.184,0,0,0-.813-1.235A10.388,10.388,0,0,0,289.48,388v-.455h6.175V388a2.422,2.422,0,0,0-1.4.325,1.56,1.56,0,0,0-.455,1.332v7.021a9.262,9.262,0,0,1-3.087,1.917,13.847,13.847,0,0,1-5.005.747A8.976,8.976,0,0,1,278.479,396.3Z" transform="translate(-154.536 -375.943)" fill="#fff"></path>
      <path id="Path_572" data-name="Path 572" d="M318.745,396.3q-2.583-3.038-2.584-8.662a14.744,14.744,0,0,1,1.251-6.37,8.847,8.847,0,0,1,3.575-3.981,10.723,10.723,0,0,1,5.477-1.349,8.963,8.963,0,0,1,3.494.634,10.542,10.542,0,0,1,2.421,1.349,1.427,1.427,0,0,0,.293.162q.293,0,.292-.617v-1.365h.65v5.655h-.423a5.048,5.048,0,0,0-2.063-3.64,7.485,7.485,0,0,0-4.664-1.4,8.328,8.328,0,0,0-6.923,2.974,12.374,12.374,0,0,0-2.373,7.947,12.868,12.868,0,0,0,2.242,7.963q2.243,2.958,6.858,2.957a14.364,14.364,0,0,0,3.689-.5,6.938,6.938,0,0,0,3.136-1.706v-6.7a1.184,1.184,0,0,0-.812-1.235,10.393,10.393,0,0,0-2.536-.423v-.455h6.176V388a2.421,2.421,0,0,0-1.4.325,1.559,1.559,0,0,0-.455,1.332v7.021a9.26,9.26,0,0,1-3.088,1.917,13.845,13.845,0,0,1-5.005.747A8.976,8.976,0,0,1,318.745,396.3Z" transform="translate(-173.091 -375.943)" fill="#fff"></path>
      <path id="Path_573" data-name="Path 573" d="M370.8,393.9l-.456,5.4h-15.73v-.455h.877a3.306,3.306,0,0,0,1.479-.26.857.857,0,0,0,.5-.812v-19.7a.858.858,0,0,0-.5-.812A3.314,3.314,0,0,0,355.5,377h-.877v-.456h15.73v5.006h-.422a9.911,9.911,0,0,0-.52-2.958,1.709,1.709,0,0,0-1.722-1.267h-9.165v9.458h6.922a1.184,1.184,0,0,0,1.235-.813,10.41,10.41,0,0,0,.423-2.535h.455v7.475H367.1a10.419,10.419,0,0,0-.423-2.535,1.184,1.184,0,0,0-1.235-.813h-6.922v10.953h9.327q1.235,0,1.836-1.511a10.011,10.011,0,0,0,.7-3.1Z" transform="translate(-190.813 -376.22)" fill="#fff"></path>
      <path id="Path_574" data-name="Path 574" d="M403.4,396.4a4.861,4.861,0,0,0,1.154,1.723,2.745,2.745,0,0,0,1.982.715v.455H405.2a2.443,2.443,0,0,1-1.934-.942,6.419,6.419,0,0,1-1.219-2.47l-.292-1.138a32.24,32.24,0,0,0-.959-3.217,5.207,5.207,0,0,0-1.154-1.885q-.78.066-1.235.065h-5.655v8.061a.856.856,0,0,0,.5.812,3.3,3.3,0,0,0,1.479.26h.878v.455h-6.761v-.455h.877a3.308,3.308,0,0,0,1.479-.26.857.857,0,0,0,.5-.812v-19.7a.858.858,0,0,0-.5-.812,3.316,3.316,0,0,0-1.479-.26h-.877v-.456h9.555q3.38,0,4.957,1.723a6.915,6.915,0,0,1,1.576,4.842,7.641,7.641,0,0,1-1.072,4.225,5.031,5.031,0,0,1-3.348,2.145,3.1,3.1,0,0,1,1.154,1.479,22.935,22.935,0,0,1,.861,2.714A23.859,23.859,0,0,0,403.4,396.4Zm-4.956-7.475a5.206,5.206,0,0,0,4.16-1.544,6.332,6.332,0,0,0,1.332-4.274,6.257,6.257,0,0,0-1.332-4.274,5.269,5.269,0,0,0-4.16-1.511h-5.688v11.6Z" transform="translate(-206.59 -376.22)" fill="#fff"></path>
      <path id="Path_575" data-name="Path 575" d="M441.419,398.841h.878a3.3,3.3,0,0,0,1.478-.26.857.857,0,0,0,.5-.812v-19.7a.858.858,0,0,0-.5-.812A3.312,3.312,0,0,0,442.3,377h-.878v-.456h6.76V377H447.3a3.31,3.31,0,0,0-1.478.26.857.857,0,0,0-.5.812v19.7a.856.856,0,0,0,.5.812,3.3,3.3,0,0,0,1.478.26h.878v.455h-6.76Z" transform="translate(-230.812 -376.22)" fill="#fff"></path>
      <path id="Path_576" data-name="Path 576" d="M457.935,398.841h.877a3.3,3.3,0,0,0,1.479-.26.857.857,0,0,0,.5-.812v-19.7a.857.857,0,0,0-.5-.812,3.313,3.313,0,0,0-1.479-.26h-.877v-.456h6.76V377h-.878a3.31,3.31,0,0,0-1.478.26.857.857,0,0,0-.5.812v19.7a.856.856,0,0,0,.5.812,3.3,3.3,0,0,0,1.478.26h.878v.455h-6.76Z" transform="translate(-238.423 -376.22)" fill="#fff"></path>
    </g>
  </g>
</svg>
