<?xml version="1.0" encoding="UTF-8"?>
<svg xmlns="http://www.w3.org/2000/svg" width="68.007" height="68.007" viewBox="0 0 68.007 68.007">
  <g id="Group_714" data-name="Group 714" transform="translate(-12.718 -18.181)">
    <path id="Path_527" data-name="Path 527" d="M46.888,24.449,20.751,50.586a.82.82,0,1,0,1.16,1.158L48.048,25.609a1.9,1.9,0,0,1,2.621,0l19.15,19.15a.82.82,0,0,0,1.16-1.16l-19.15-19.15a3.576,3.576,0,0,0-4.94,0" transform="translate(1.905 2.179)" fill="#fff"></path>
    <path id="Path_528" data-name="Path 528" d="M66.753,47.326,40.615,73.463a1.855,1.855,0,0,1-2.62,0L18.845,54.312a.82.82,0,0,0-1.158,1.16l19.15,19.15a3.5,3.5,0,0,0,4.94,0L67.912,48.486a.82.82,0,1,0-1.158-1.16" transform="translate(1.621 4.374)" fill="#fff"></path>
    <path id="Path_529" data-name="Path 529" d="M72.413,16.686a6.4,6.4,0,0,0-4.738,3.08l-4.978,8.3a.328.328,0,0,1-.513.064L53.2,19.139a4.266,4.266,0,0,0-6.028,0L12.886,53.422a4.261,4.261,0,0,0,0,6.028L36.83,83.394a4.264,4.264,0,0,0,6.028,0L77.142,49.111a4.266,4.266,0,0,0,0-6.027L68.154,34.1a.325.325,0,0,1-.093-.272.317.317,0,0,1,.156-.239h0l8.3-4.978a6.443,6.443,0,0,0-4.1-11.919m5.554,6.981a4.773,4.773,0,0,1-2.3,3.532l-8.3,4.978A1.966,1.966,0,0,0,67,35.256l8.988,8.987a2.629,2.629,0,0,1,0,3.71L41.7,82.235a2.685,2.685,0,0,1-3.709,0L14.045,58.291a2.627,2.627,0,0,1,0-3.709L48.328,20.3a2.624,2.624,0,0,1,3.71,0l8.988,8.987a1.965,1.965,0,0,0,3.077-.379l4.978-8.3a4.8,4.8,0,0,1,8.886,3.058" transform="translate(1.081 1.545)" fill="#fff"></path>
    <path id="Path_530" data-name="Path 530" d="M65.969,21.039a2.807,2.807,0,1,0,3.969,0,2.811,2.811,0,0,0-3.969,0m2.81,2.81a1.166,1.166,0,1,1,0-1.65,1.169,1.169,0,0,1,0,1.65" transform="translate(6.052 1.878)" fill="#fff"></path>
  </g>
</svg>
