<?xml version="1.0" encoding="UTF-8"?>
<svg xmlns="http://www.w3.org/2000/svg" width="81.152" height="43.386" viewBox="0 0 81.152 43.386">
  <path id="Path_523" data-name="Path 523" d="M91.421,33.645a.688.688,0,0,0-.023-.115.76.76,0,0,0-.034-.17.738.738,0,0,0-.086-.151.684.684,0,0,0-.058-.1c-.007-.007-.015-.01-.022-.017a.8.8,0,0,0-.138-.1.739.739,0,0,0-.121-.082.824.824,0,0,0-.131-.035.79.79,0,0,0-.18-.037c-.009,0-.016,0-.026,0H79.079V25.857a.777.777,0,0,0-.023-.114.855.855,0,0,0-.035-.172.822.822,0,0,0-.085-.151.934.934,0,0,0-.058-.1c-.007-.008-.016-.01-.023-.017a.788.788,0,0,0-.136-.1.9.9,0,0,0-.123-.083.952.952,0,0,0-.125-.034.845.845,0,0,0-.187-.037c-.009,0-.016-.005-.025-.005H53.575a.848.848,0,0,0-.1.021.873.873,0,0,0-.183.037.847.847,0,0,0-.146.084.829.829,0,0,0-.1.059l-8.727,7.587H41.232a.818.818,0,0,0-.538.2l-30.143,26.2c-.008.007-.01.016-.017.023a.81.81,0,0,0-.106.138.772.772,0,0,0-.081.12.813.813,0,0,0-.036.134.825.825,0,0,0-.036.176c0,.01-.005.017-.005.027V67.6a.82.82,0,0,0,.82.82H60.458a.819.819,0,0,0,.3-.06.781.781,0,0,0,.1-.062A.812.812,0,0,0,61,68.222l30.144-26.2c.007-.007.01-.015.017-.022a.88.88,0,0,0,.106-.139.432.432,0,0,0,.117-.255.813.813,0,0,0,.035-.175.261.261,0,0,0,.005-.028ZM25.291,48.587c.117.158.221.322.323.49l-2.721,2.365c-.008.007-.01.015-.017.022a.832.832,0,0,0-.106.139.857.857,0,0,0-.081.12,2.454,2.454,0,0,0-.071.309.266.266,0,0,0-.007.028v6.967h-9.33Zm5.226-4.542c.09.153.183.322.286.52l-3.934,3.42c-.107-.162-.225-.316-.343-.471ZM51.108,29.087c1.489,2.1,5.718,8.834,4.372,15.485L47.81,51.24H44.746c3.556-8.141.581-14.157-.624-16.081Zm2.773-2.411h5.6c.792,1.482,3.414,7.141,1.195,13.378l-3.336,2.9c.462-6.777-3.568-13-4.987-14.952ZM71.848,48.86a34.8,34.8,0,0,0-11.634,1.525l5.172-4.5A21.659,21.659,0,0,1,81.234,40.7Zm11.066-9.62a23.444,23.444,0,0,0-10.987.963l6.6-5.739h9.88Zm-5.474-6L65.265,43.823c-.03.023-.057.051-.085.074L48.936,58.017V52.433l28.5-24.777ZM47.3,59H24.252V52.88H47.3Zm15.6-20.87a18.884,18.884,0,0,0-1.573-11.45H76.067ZM42.868,36.25c1.143,1.919,3.636,7.483.062,14.99H39.6c.882-2.311,2.3-7.526-.737-11.514ZM37.63,40.8c2.709,3.7.854,8.9.2,10.437H25.623ZM55.156,54.782c4.669-3.607,11.433-4.225,14.819-4.294l-9.824,8.539H50.272Zm6.121,5.438,11.388-9.9.01-.009,17.106-14.87v5.584l-28.5,24.779ZM41.538,34.464h.886l-10.35,9c-.107-.193-.208-.363-.3-.509Zm-29.63,26.2H34.953v6.117H11.908Zm47.73,6.117H36.594V60.667H59.638Z" transform="translate(-10.269 -25.037)" fill="#fff"></path>
</svg>
