<?xml version="1.0" encoding="UTF-8"?>
<svg xmlns="http://www.w3.org/2000/svg" width="56.172" height="56.172" viewBox="0 0 56.172 56.172">
  <path id="Path_535" data-name="Path 535" d="M75.538,69.715H72.8V31.293l3.226-3.22h0a.74.74,0,0,0,.13-.191.2.2,0,0,0,0-.062.869.869,0,0,0,.04-.185v-6.9a.683.683,0,0,0-.684-.684H20.736a.684.684,0,0,0-.685.684v6.892a.87.87,0,0,0,.04.185v.062a.763.763,0,0,0,.131.191l3.254,3.227V69.715h-2.74a.684.684,0,0,0-.685.685v5.138a.685.685,0,0,0,.685.684h54.8a.683.683,0,0,0,.684-.684V70.4a.683.683,0,0,0-.684-.685M21.421,21.42H74.853V26.9H21.421Zm.965,6.85h51.5l-2.055,2.056H24.442ZM71.428,69.715h-5.48V31.7h5.48ZM41.541,58.946h0a2.3,2.3,0,0,0,2.254.781,3.156,3.156,0,0,0,2.583-2.205c1.034-2.631.3-7.063-1.521-10.1,2.056.315,5.624,1.212,7.536,3.644a6.716,6.716,0,0,1,1.075,5.714c-.534,2.671-.274,4.37.836,5.056a2.556,2.556,0,0,0,2.877-.37,4.726,4.726,0,0,0,1.028-1.027c.684,2.287.992,6.364-3.706,9.248H42.013c-.945-.685-5.748-4.3-3.83-9.091a19.494,19.494,0,0,1,2.926-5.234,4.764,4.764,0,0,0,.432,3.583m17.153-.87h-.027a.686.686,0,0,0-1.261.507c.123.48-.363,1.281-1.075,1.8a1.422,1.422,0,0,1-1.369.329c-.411-.268-.685-1.37-.22-3.658a7.991,7.991,0,0,0-1.369-6.85c-3.118-3.987-9.734-4.33-10.015-4.337a.68.68,0,0,0-.549,1.123c2.152,2.549,3.227,7.412,2.207,10.008a1.837,1.837,0,0,1-1.473,1.37c-.74.089-.939-.185-1.007-.267-.617-.781-.131-3.131.4-4.549h0a.683.683,0,0,0-.932-.863c-.109.055-2.74,1.369-5.186,7.425-1.74,4.351,1.021,7.831,2.939,9.591H31.7V45.534c1.514.137,4.713-.22,8.391-4.452,2.377-2.741,5.158-4.172,8.049-4.172s5.672,1.438,8.049,4.172c3.685,4.233,6.85,4.589,8.391,4.452V69.715H56.8c5.576-4.809,1.939-11.564,1.9-11.639m-27-13.913V31.7H64.578V44.164c-1.048.13-3.878.021-7.364-3.987-2.637-3-5.775-4.637-9.077-4.637s-6.439,1.637-9.077,4.637c-3.494,4.014-6.309,4.11-7.364,3.987m-1.37,25.552h-5.48V31.7h5.48Zm44.527,5.138H21.421V71.086H74.853Z" transform="translate(-20.051 -20.051)" fill="#fff"></path>
</svg>
