<?xml version="1.0" encoding="UTF-8"?>
<svg xmlns="http://www.w3.org/2000/svg" width="42.495" height="72.789" viewBox="0 0 42.495 72.789">
  <path id="Path_525" data-name="Path 525" d="M68.583,30.766c-.111-1.167-.263-2.767-.605-5.008-.173-1.136-.346-2.025-.491-2.765a7.509,7.509,0,0,1-.22-3.376c.043-.19.1-.412.166-.657.416-1.583,1.045-3.975-.078-5.432a3.058,3.058,0,0,0-2.572-1.08H42.323a.82.82,0,0,0-.82.82V29.145H30.328a.82.82,0,0,0-.778,1.077c.652,1.977,2.258,7.541,1.843,9.53-.422,2.026-.913,5.46-.551,6.516a64.76,64.76,0,0,1-1.317,7.685C29,56.5,28.5,58.658,28.32,59.19c-.143.413-.4.99-.678,1.6-.215.477-.414.925-.589,1.343l-.008.015v.005a6.19,6.19,0,0,0-.709,3.031c.074.467.127,1.026.193,1.737.111,1.167.262,2.767.605,5.007.173,1.133.346,2.023.491,2.762a7.544,7.544,0,0,1,.22,3.38c-.043.189-.1.412-.166.657-.416,1.583-1.045,3.974.078,5.431a3.058,3.058,0,0,0,2.572,1.08H52.789a.82.82,0,0,0,.82-.82V68.542H64.784a.819.819,0,0,0,.778-1.076c-.654-1.976-2.258-7.54-1.844-9.53.423-2.026.913-5.46.551-6.515a65.718,65.718,0,0,1,1.317-7.685c.53-2.562,1.026-4.716,1.207-5.239.143-.413.4-.99.679-1.6.868-1.925,1.47-3.367,1.3-4.392-.073-.466-.126-1.025-.192-1.736M66.057,14.53c.631.819.106,2.819-.209,4.013-.07.264-.132.5-.179.708a8.922,8.922,0,0,0,.209,4.056c.141.722.31,1.591.481,2.7.334,2.193.483,3.766.592,4.915.061.651.115,1.166.179,1.619A18.669,18.669,0,0,1,65.5,28.1c-.451-2.813-1.616-3.6-1.846-3.732-1.275-.721-5.575-3.04-7.211-2.65-1.615.386-3.792,2.367-4.945,3.514l-.3.3a11.287,11.287,0,0,0-2.87,3.611H43.565a4.191,4.191,0,0,0,1.673-2.609c.1-.308.239-.776.277-.843,1.234-.493,2.828-2.721,2.709-3.784a22.875,22.875,0,0,1,.455-2.9c.092-.484.186-.98.271-1.459.156-.873,2.4-2.448,4.455-3.458h11.38c.932,0,1.188.332,1.272.442m-15.922-.442c-1.3.882-2.593,2.021-2.8,3.169-.084.473-.177.964-.268,1.442a16.365,16.365,0,0,0-.474,3.328,4.514,4.514,0,0,1-1.686,2.144c-.748.3-1,1.1-1.235,1.883a5.081,5.081,0,0,1-.529,1.292V14.088Zm-18.689,16.7H51.969V61.753c-.045-.057-.091-.115-.134-.168a3.553,3.553,0,0,1-.677-1.027,4.242,4.242,0,0,0-1.109-3.349c-.285-.264-.309-1.37-.327-2.177-.011-.482-.023-.976-.067-1.449a10.9,10.9,0,0,0-1.445-3.831c-.184-.344-.352-.659-.475-.93a8.238,8.238,0,0,1-.859-2.609c-.137-1.134-1.478-2.531-2.96-3.983l-.3-.3c-1.154-1.148-3.331-3.13-4.943-3.515-1.225-.293-3.884.9-5.7,1.836.011-.056.02-.109.032-.165.467-2.233-.875-7.085-1.552-9.3M27.954,64.928a5.925,5.925,0,0,1,.638-2.224c.257-.638,1.316-.973,2.021-1.195.212-.067.4-.127.557-.186,1.336-.51,2.3-3.961,2.328-5.039a7.718,7.718,0,0,1,.816-1.962,9.066,9.066,0,0,0,1.145-3.057.571.571,0,0,1,.238-.447,2.836,2.836,0,0,1,1.94-.3c.007,0,.658.407.886,3.7a5.489,5.489,0,0,0,1.609,2.942,5.834,5.834,0,0,1,.892,1.226,4.309,4.309,0,0,1,.038,2.765c-.4,1.191.412,2.306,2.163,3A5.741,5.741,0,0,1,43,65.755a6.858,6.858,0,0,0-.228,1.408,11.816,11.816,0,0,0,.791,2.871,17.141,17.141,0,0,1,1.113,4.242,3.82,3.82,0,0,1-.114.7,1.115,1.115,0,0,0-.351.863,6.4,6.4,0,0,0,.037.671,3.35,3.35,0,0,1-.012,1.033c-.146.738.361,1.536.949,2.46a6.385,6.385,0,0,1,.642,1.151,24.212,24.212,0,0,1,.02,2.445H42.272A7.026,7.026,0,0,0,40.8,80.057c-.392-.438-.362-.631-.271-1.2a4.632,4.632,0,0,0-.281-2.764,2.818,2.818,0,0,1-.322-1.775,1.945,1.945,0,0,0-.221-1.411,13.478,13.478,0,0,1-.643-2.185A24.419,24.419,0,0,0,38,67.183a2.447,2.447,0,0,0-1.834-1.657,2.7,2.7,0,0,0-2.339.964c-.233.263-.445.537-.669.825a14.143,14.143,0,0,1-1.29,1.5,6.694,6.694,0,0,0-1.425,3,9.069,9.069,0,0,1-.308.975c-.131.309-.448,1.1-.817,2.036-.027-.144-.055-.289-.085-.445-.141-.721-.31-1.589-.481-2.7-.334-2.193-.483-3.766-.592-4.914-.071-.753-.129-1.346-.208-1.839m1.1,18.23c-.5-.647-.274-2.027,0-3.169.213-.546,2.222-5.681,2.595-6.564a10.132,10.132,0,0,0,.377-1.17,5.481,5.481,0,0,1,1-2.278,15.6,15.6,0,0,0,1.43-1.656c.2-.26.392-.506.6-.742a1.171,1.171,0,0,1,.85-.433c.275.044.487.447.588.684a23.3,23.3,0,0,1,.979,3.286,12.492,12.492,0,0,0,.8,2.588c.071.127.071.127.034.353a4.435,4.435,0,0,0,.424,2.657,3.019,3.019,0,0,1,.179,1.887,2.682,2.682,0,0,0,.668,2.548,5.175,5.175,0,0,1,1.032,2.45H30.328c-.932,0-1.188-.332-1.272-.442m22.914.442H47.485a24.373,24.373,0,0,0-.032-2.647,5.106,5.106,0,0,0-.885-1.827,8.626,8.626,0,0,1-.725-1.26,4.864,4.864,0,0,0,.036-1.51c-.011-.118-.023-.233-.027-.354a2.841,2.841,0,0,0,.454-1.566c.1-1.035-.431-2.7-1.191-4.929a16.868,16.868,0,0,1-.7-2.342,6.329,6.329,0,0,1,.187-1.042c.269-1.175.677-2.951-.716-3.48-.882-.337-1.334-.76-1.262-.974a5.954,5.954,0,0,0-.071-3.887A6.581,6.581,0,0,0,41.383,56.1a4.507,4.507,0,0,1-1.224-2c-.233-3.368-.92-4.973-2.226-5.2a4.369,4.369,0,0,0-3.246.625,2.2,2.2,0,0,0-.862,1.625,8.5,8.5,0,0,1-.974,2.428,7.349,7.349,0,0,0-.992,2.652,8.218,8.218,0,0,1-1.273,3.558c-.129.049-.289.1-.464.153-.12.038-.251.079-.388.125.045-.114.1-.242.137-.345.255-.741.838-3.393,1.26-5.44,1.569-7.6,1.367-8.205,1.292-8.432a13.1,13.1,0,0,1,.19-3.55c2.532-1.4,5.07-2.43,5.675-2.292a12.325,12.325,0,0,1,4.169,3.083l.315.308c.656.643,2.4,2.351,2.479,3.008a9.583,9.583,0,0,0,.993,3.09c.134.3.318.644.519,1.022a9.713,9.713,0,0,1,1.26,3.215c.042.435.05.889.06,1.331.03,1.339.058,2.6.847,3.34a2.736,2.736,0,0,1,.589,2.15,3.5,3.5,0,0,0,1.036,2.05,5.586,5.586,0,0,1,1.414,2.725ZM62.69,51.835a19.937,19.937,0,0,1-.576,5.766c-.466,2.233.874,7.084,1.552,9.3H53.609V46.343a1.865,1.865,0,0,0,.44-1.89,4.3,4.3,0,0,1,.038-2.765,5.829,5.829,0,0,1,.891-1.224,5.483,5.483,0,0,0,1.61-2.944c.228-3.294.879-3.7.872-3.7a2.839,2.839,0,0,1,1.954.3.571.571,0,0,1,.238.447A9.042,9.042,0,0,0,60.8,37.625a7.734,7.734,0,0,1,.816,1.962c.031,1.028.9,4.2,2.138,4.942-1.314,6.527-1.133,7.091-1.062,7.306m2.553-13.873c-.217.63-.67,2.633-1.076,4.556a8.934,8.934,0,0,1-.913-2.98,7.334,7.334,0,0,0-.993-2.652,8.5,8.5,0,0,1-.974-2.43,2.2,2.2,0,0,0-.861-1.623,4.371,4.371,0,0,0-3.247-.626c-1.306.227-1.993,1.832-2.226,5.2a4.5,4.5,0,0,1-1.225,2l-.119.142V29.965a.82.82,0,0,0-.82-.82H50.136a19.789,19.789,0,0,1,2.205-2.439l.313-.309a12.346,12.346,0,0,1,4.173-3.082c.611-.153,3.381.988,5.99,2.463.008.005.739.539,1.068,2.585a25.969,25.969,0,0,0,2.643,6.6c-.185.44-.381.88-.55,1.255-.293.647-.568,1.258-.734,1.741" transform="translate(-26.308 -12.449)" fill="#fff"></path>
</svg>
