<?xml version="1.0" encoding="UTF-8"?>
<svg xmlns="http://www.w3.org/2000/svg" width="64.87" height="62.081" viewBox="0 0 64.87 62.081">
  <g id="Group_713" data-name="Group 713" transform="translate(-17.565 -15.681)">
    <path id="Path_532" data-name="Path 532" d="M80.315,39.34a2.638,2.638,0,0,0-2.021-.939H62.707A12.689,12.689,0,0,0,65.051,31.9c.4-.437.854-.85,1.3-1.25,1.428-1.292,2.906-2.631,2.906-4.953a4.034,4.034,0,0,0-3.607-4.09h0a4.17,4.17,0,0,0-2.792.855,8.49,8.49,0,0,1-.691-3.346v-.487a1.888,1.888,0,0,0-1.383-1.815L52.1,14.416a1.882,1.882,0,0,0-2.383,1.815v2.925a8.227,8.227,0,0,1-.9,3.744,17.287,17.287,0,0,0-2.048,7.639,13.04,13.04,0,0,0,2.4,7.862H44.58a2.051,2.051,0,0,0,.015-.766l-.753-4.308a.258.258,0,0,1,.1-.244,2.067,2.067,0,0,0,.755-1.785,2.137,2.137,0,0,0-2.158-1.887H38.147c-1.527,0-2.5.8-2.595,1.886a2.062,2.062,0,0,0,.755,1.785.26.26,0,0,1,.1.245l-.753,4.308a2.028,2.028,0,0,0,.015.766h-1.92a2.028,2.028,0,0,0,.014-.766l-.752-4.308a.256.256,0,0,1,.1-.244A2.067,2.067,0,0,0,33.86,31.3,2.137,2.137,0,0,0,31.7,29.411H27.316c-1.527,0-2.5.8-2.595,1.886a2.062,2.062,0,0,0,.755,1.785.258.258,0,0,1,.1.245l-.753,4.308a2.028,2.028,0,0,0,.015.766H18.717a2.645,2.645,0,0,0,0,5.291h1.329v2.675a2.236,2.236,0,0,0,4.471,0V43.692H72.5v2.675a2.236,2.236,0,0,0,4.471,0V43.692H78.3a2.645,2.645,0,0,0,2.021-4.352ZM65.562,23.147A2.512,2.512,0,0,1,67.7,25.691c0,1.636-1.109,2.64-2.4,3.8h0c-.078.07-.155.145-.236.217a17.1,17.1,0,0,0-1.527-5.8,2.487,2.487,0,0,1,2.017-.767M48.318,30.538a15.728,15.728,0,0,1,1.876-6.931,9.757,9.757,0,0,0,1.068-4.451V16.231a.328.328,0,0,1,.132-.267.335.335,0,0,1,.2-.07.364.364,0,0,1,.091.013L60.37,18.3a.334.334,0,0,1,.246.322v.487A10,10,0,0,0,61.7,23.645a15.724,15.724,0,0,1,1.857,6.894,11.5,11.5,0,0,1-2.156,7.033h0a1.988,1.988,0,0,1-1.589.786H52.061a1.987,1.987,0,0,1-1.588-.786,11.5,11.5,0,0,1-2.155-7.033m-10.7.422h5.017a.522.522,0,0,1,0,1.044H37.614a.522.522,0,0,1,0-1.044m5.358,7.355a.209.209,0,0,1-.154.086H37.425a.213.213,0,0,1-.155-.086.515.515,0,0,1-.1-.412l.761-4.35h4.374l.761,4.35A.507.507,0,0,1,42.973,38.315ZM26.78,30.96H31.8A.522.522,0,0,1,31.8,32H26.78a.522.522,0,0,1,0-1.044m5.358,7.355a.209.209,0,0,1-.154.086H26.591a.213.213,0,0,1-.155-.086.511.511,0,0,1-.1-.412l.761-4.35h4.374l.761,4.35A.511.511,0,0,1,32.139,38.315Zm-9.172,8.052a.688.688,0,0,1-1.376,0V43.692h1.376Zm52.451,0a.688.688,0,0,1-1.376,0V43.692h1.376ZM79,41.887a1.1,1.1,0,0,1-.709.258H18.716a1.1,1.1,0,1,1,0-2.195H78.293A1.1,1.1,0,0,1,79,41.887" transform="translate(1.493 1.333)" fill="#fff"></path>
    <path id="Path_533" data-name="Path 533" d="M80.315,64.379a2.638,2.638,0,0,0-2.021-.939H69.509c.005-.045.016-.09.019-.136v-9.7a3.451,3.451,0,0,0-1.106-2.766.255.255,0,0,1,.02-.416,2.395,2.395,0,0,0,1.078-2.233,2.48,2.48,0,0,0-2.5-2.179h-9.4a2.478,2.478,0,0,0-2.5,2.181,2.4,2.4,0,0,0,1.075,2.234.254.254,0,0,1,.021.416A3.451,3.451,0,0,0,55.1,53.605v9.7c0,.046.013.091.019.136H50.144c0-.011.005-.021.005-.032V51.432a3.671,3.671,0,0,0-.793-2.486.248.248,0,0,1,.014-.369,2.187,2.187,0,0,0,.741-2.084,2.246,2.246,0,0,0-2.236-1.784H43.218c-1.531,0-2.5.731-2.7,1.784a2.194,2.194,0,0,0,.741,2.084.246.246,0,0,1,.014.369,3.671,3.671,0,0,0-.792,2.486V63.409a.315.315,0,0,1,0,.032H38.794a.316.316,0,0,0,0-.032V51.432a3.669,3.669,0,0,0-.792-2.486.246.246,0,0,1,.014-.369,2.194,2.194,0,0,0,.741-2.084,2.246,2.246,0,0,0-2.236-1.784H31.869c-1.531,0-2.5.731-2.7,1.784a2.187,2.187,0,0,0,.741,2.084.248.248,0,0,1,.014.369,3.672,3.672,0,0,0-.793,2.486V63.409h0a.316.316,0,0,0,0,.032H18.717a2.645,2.645,0,0,0,0,5.291h1.329v2.675a2.236,2.236,0,0,0,4.471,0V68.731H72.5v2.675a2.236,2.236,0,0,0,4.471,0V68.731H78.3a2.645,2.645,0,0,0,2.021-4.352ZM56.884,47.8a.856.856,0,0,1,.62-.243h9.62a.856.856,0,1,1,0,1.711H57.5a.856.856,0,0,1-.62-1.469m7.963,6.076a14.112,14.112,0,0,0-3.354.972c-2.131.815-3.546,1.27-4.847.166V53.6a1.824,1.824,0,0,1,.627-1.62,2.062,2.062,0,0,0,1.015-1.163h8.048a2.055,2.055,0,0,0,1.015,1.163,1.824,1.824,0,0,1,.627,1.62l0,.486a7.322,7.322,0,0,0-3.134-.212M67.981,63.3c0,.048-.092.127-.232.14H56.88c-.141-.013-.232-.091-.232-.14V56.845a4.067,4.067,0,0,0,1.742.378,10.6,10.6,0,0,0,3.659-.925,12.933,12.933,0,0,1,2.978-.878,4.837,4.837,0,0,1,2.954.35ZM48.6,51.43v.2a4.175,4.175,0,0,0-1.756-.051,6.454,6.454,0,0,0-2.021.774c-.989.522-1.622.852-2.792.18v-1.1a2.091,2.091,0,0,1,.334-1.386,1.819,1.819,0,0,0,.658-.945h4.585a1.823,1.823,0,0,0,.658.945A2.082,2.082,0,0,1,48.6,51.43m0,1.872V63.409a.03.03,0,0,1-.034.032H42.034V54.232a3.554,3.554,0,0,0,1.207.224,4.864,4.864,0,0,0,2.308-.734,5.082,5.082,0,0,1,1.548-.614,2.012,2.012,0,0,1,1.508.2M42.21,46.438a.652.652,0,0,1,.471-.184h5.272a.649.649,0,0,1,0,1.3H42.681a.649.649,0,0,1-.471-1.115M37.251,51.43v.2a4.175,4.175,0,0,0-1.756-.051,6.454,6.454,0,0,0-2.021.774c-.989.522-1.623.852-2.792.18v-1.1a2.085,2.085,0,0,1,.334-1.386,1.819,1.819,0,0,0,.658-.945h4.585a1.817,1.817,0,0,0,.658.945,2.088,2.088,0,0,1,.334,1.385m0,1.872V63.409a.029.029,0,0,1-.011.024.031.031,0,0,1-.024.008H30.683V54.232a3.56,3.56,0,0,0,1.208.224,4.868,4.868,0,0,0,2.308-.734,5.071,5.071,0,0,1,1.548-.614,2.013,2.013,0,0,1,1.508.2M30.86,46.438a.65.65,0,0,1,.471-.184H36.6a.649.649,0,0,1,0,1.3H31.331a.649.649,0,0,1-.471-1.115M22.967,71.406a.688.688,0,0,1-1.376,0V68.731h1.376Zm52.451,0a.688.688,0,0,1-1.376,0V68.731h1.376ZM79,66.926a1.1,1.1,0,0,1-.709.258H18.716a1.1,1.1,0,1,1,0-2.195H56.728a1.708,1.708,0,0,0,.184.012h10.8a1.708,1.708,0,0,0,.184-.012H78.293A1.1,1.1,0,0,1,79,66.926" transform="translate(1.493 4.153)" fill="#fff"></path>
  </g>
</svg>
