<?xml version="1.0" encoding="UTF-8"?>
<svg xmlns="http://www.w3.org/2000/svg" width="76.743" height="50" viewBox="0 0 76.743 50">
  <g id="Group_691" data-name="Group 691" transform="translate(-70.162 -90)">
    <path id="Path_536" data-name="Path 536" d="M256.827,166.853c10.072,0,17.8-2.917,24.136-5.312,4.257-1.608,7.934-3,11.55-3.327.952-.048,1.561-.074,1.561-.074a.088.088,0,0,0,0-.176c-.5,0-1.029.025-1.569.074-2.247.113-6.4.347-8.968.646a6.946,6.946,0,0,1-4.567-1.826,8.108,8.108,0,0,1-2.531-6.363c0-.047-.168-4.726,3.876-5.276a5.556,5.556,0,0,1,3.606,1.072c2.008,1.143,4.284,2.439,8.908-.3a.088.088,0,0,0-.07-.161,18.769,18.769,0,0,1-4.9.819,9.132,9.132,0,0,1-3.716-1.509,7.752,7.752,0,0,0-2.142-1.02,2.1,2.1,0,0,1,1.282-.266,2.636,2.636,0,0,1,.747.313,2.908,2.908,0,0,0,1.276.437,2.847,2.847,0,0,0,1.716-.6c.077-.049.152-.1.227-.143a7.878,7.878,0,0,1,2.4-.942c.539-.049,1.338-.116,2.064-.132.377-.009.433.109.511.287a.793.793,0,0,0,.224.325c.252.2.886.11,1.446.026.2-.029.387-.058.523-.066.3-.018.377.031.392.044.14.91,1.649,1.595,2.2,1.7a3.864,3.864,0,0,0,1.965-.286,2.38,2.38,0,0,1,.479-.155,2.061,2.061,0,0,0,1.132-.584c.519-.563-.058-1.867-.369-2.568l-.056-.126c-.144-.33.1-.557.385-.818a2.121,2.121,0,0,0,.372-.407c.249-.4.1-.887-.4-1.331a3.577,3.577,0,0,1-.507-1.708c-.018-.123-.035-.239-.052-.34a.507.507,0,0,0-.2-.377.687.687,0,0,0-.561.028,1.6,1.6,0,0,1-.272.07c-.155.019-.212-.082-.33-.374a2.779,2.779,0,0,0-.246-.5,2.874,2.874,0,0,1-.186-1.082c-.037-.574-.068-1.07-.326-1.169a.932.932,0,0,0-.616.017.87.87,0,0,1-.465.039c-.014,0-.017-.009-.02-.015-.051-.106.119-.493.256-.805a3.623,3.623,0,0,0,.373-1.164c.011-.549-.589-1.236-1.786-2.043-.449-.3-.446-.43-.441-.662a1.609,1.609,0,0,0-.021-.352c-.082-.453-.64-1.808-1.249-1.892l-.222-.029a1.211,1.211,0,0,1-.642-.209,4.219,4.219,0,0,0-2.226.1c-.082.039-.165.086-.249.133-.248.138-.5.282-.714.215a1.178,1.178,0,0,1-.29-.153,1.044,1.044,0,0,0-.665-.218h-.007c-.259,0-.586-.451-.9-.886a8.194,8.194,0,0,0-.521-.67c-.461-.511-1.5-.467-2.265-.437-.185.008-.344.014-.47.011a1.331,1.331,0,0,1-1-.547l-.064-.07a11,11,0,0,0-3.2-.2c-.4.048-.465.436-.505.668-.008.046-.018.1-.029.142a8.413,8.413,0,0,1-.794-.733,9.182,9.182,0,0,0-.917-.841c-.425-.288-.9.119-1.207.388-.066.057-.124.107-.172.142-.488.353-.644.373-.693.353,0,0-.014-.006-.02-.035-.049-.247-.523-1.446-.875-1.466-.121-.007-1.167.037-2.379.087-1.441.06-3.234.134-3.4.119-.185-.017-.224-.383-.253-.65-.007-.062-.013-.121-.021-.171-.044-.291-.261-.3-.561-.314-.1,0-.217-.01-.354-.025a6.246,6.246,0,0,1-1.17-.35c-.394-.142-.841-.3-1.269-.412a16.493,16.493,0,0,0-4.154-.132,1.113,1.113,0,0,0-.675.685,1.14,1.14,0,0,1-.123.214,10.817,10.817,0,0,1-1.8.031c-.784-.016-1.594-.033-2.116.007a1.359,1.359,0,0,0-1.375.989c-.041.1-.084.2-.135.29-.185.342-.325.354-.536.373a1.608,1.608,0,0,0-.26.039,4.116,4.116,0,0,0-.519.185,6.194,6.194,0,0,1-.875.3,7.679,7.679,0,0,1-1.372.121c-.282.009-.526.016-.689.039a.823.823,0,0,0-.554.338,1,1,0,0,1-.256.231,4.88,4.88,0,0,1-1.126.185,5.539,5.539,0,0,0-1.122.177c-.3.124-.388.717-.471,1.291a3.9,3.9,0,0,1-.138.7c-.1.254-.626.242-1.049.233a2.781,2.781,0,0,0-.561.021c-.341.073-.263.491-.205.8a.989.989,0,0,1,.033.344,2.486,2.486,0,0,1-.8.063,3.722,3.722,0,0,0-.916.063,12.815,12.815,0,0,0-1.232.636,14.745,14.745,0,0,1-2.223,1.094,4.584,4.584,0,0,1-.882.048,4.268,4.268,0,0,0-1.091.085,1.5,1.5,0,0,0-.889,1.024c-.411.227-2.805,1.6-2.5,2.439.308.863,3.427,2.9,3.8,2.95a.626.626,0,0,0,.505-.252.769.769,0,0,1,.426-.261.366.366,0,0,1,.268.157,1.82,1.82,0,0,1,.43,1.175c-.012.054-.2.32-2.774.254a8.241,8.241,0,0,0-1.655.267.089.089,0,0,0-.059.051c-.457,1.094-2.148,1.591-3.057,1.858a1.756,1.756,0,0,0-.612.23,1.245,1.245,0,0,0-.115.775,1.619,1.619,0,0,1-.032.525,3.336,3.336,0,0,0-.2,1.451c.028.609.073.957.683,1.009a.845.845,0,0,1,.555.25.8.8,0,0,0,.26.171,2.645,2.645,0,0,0,1-.074,10.372,10.372,0,0,0,2.7,1.41.091.091,0,0,0,.031.005h3.526a1.671,1.671,0,0,0,1.37.315c.055-.008.109-.016.164-.022a2.808,2.808,0,0,0,1.482-.853.455.455,0,0,1,.44-.2.866.866,0,0,0,.361-.052c.31-.121.246-.49.184-.846a3.7,3.7,0,0,1-.055-.4.21.21,0,0,1,.04-.162c.065-.066.23-.058.375-.051a1,1,0,0,0,.347-.021c.435-.145.408-1.334.4-1.57a1.278,1.278,0,0,0-.727-1,.864.864,0,0,1-.208-.158s-.01-.031.036-.123a2.1,2.1,0,0,1,.571-.644,3.763,3.763,0,0,1,.622.314,5.1,5.1,0,0,0,.872.433,8.2,8.2,0,0,0,1.654.01,2.454,2.454,0,0,0,.547,1.188c.036.017.066.019.525,0a8.841,8.841,0,0,1,1.648.009.949.949,0,0,1,.356.2.95.95,0,0,0,.475.229,8.5,8.5,0,0,0,1.307.014c.286-.009.555-.019.732-.013a1.341,1.341,0,0,1,.944.522l.025.025.093.095a.857.857,0,0,0,.733.357,1.423,1.423,0,0,1,.669.173c.041.019.08.038.119.055a.99.99,0,0,0,.616-.117,1.4,1.4,0,0,1,.477-.127,5.864,5.864,0,0,1,.655.224,6.72,6.72,0,0,0,1.21.383,1.766,1.766,0,0,0,.9-.4c.2-.131.47-.311.552-.285a3.086,3.086,0,0,1,.757.809.089.089,0,0,0,.072.037h1.008a7.278,7.278,0,0,1,3.779,2.821,17.315,17.315,0,0,0-2.468.295c-.975.161-2.188.361-3.853.506-1.707.149-3.436-1.169-4.588-2.3a17.923,17.923,0,0,1-2.124-2.535.088.088,0,0,0-.16.067l.318,1.5a12.522,12.522,0,0,0-4.209-.53.088.088,0,0,0,0,.176h0a9.061,9.061,0,0,1,5.288,2.153c2.685,2.168,4.46,3.6,9.7,2.9,2.29-.307,3.92.006,4.846.929.807.806,1.1,2.1.869,3.846a10.919,10.919,0,0,1-3.594,6.556c-3.13,2.822-7.877,4.253-14.108,4.253a32.452,32.452,0,0,1-19.237-6.361,31.276,31.276,0,0,1-6.579-6.366.088.088,0,0,0-.155.083,21.325,21.325,0,0,0,5.269,6.993c3.583,3.269,10.1,7.328,20.8,8.1q1.963.141,3.816.138m-16.2-26.606a.948.948,0,0,0-.84.355,1.11,1.11,0,0,1-.263.23.318.318,0,0,1-.29.057c-.091-.048-.1-.156-.111-.282a1.562,1.562,0,0,0-.023-.186c-.012-.059-.084-.124-.2-.178a1.054,1.054,0,0,0-.793-.055c-.132.068-.109.277-.061.565a1.094,1.094,0,0,1,.017.47c-.068.212-.452.185-1.125.12a3.562,3.562,0,0,0-.952-.023.781.781,0,0,0-.435.325,1.064,1.064,0,0,1-.4.346.608.608,0,0,1-.247.062.333.333,0,0,1-.133-.026.568.568,0,0,1-.261-.372l-.016-.046a.722.722,0,0,1,.115-.484,1.564,1.564,0,0,1,.768-.768,11.632,11.632,0,0,0,2.14-1.116,3.852,3.852,0,0,1,2.744-.3l.14.014a2.183,2.183,0,0,1,1.611.69.47.47,0,0,1,.121.324c-.04.224-.476.266-1.5.279m6.084-10.082c-.1.284-.481.979-.665,1.016a1.387,1.387,0,0,1-.249,0,3.663,3.663,0,0,0-1.552.21,5.032,5.032,0,0,0-1.768,1.17.736.736,0,0,0-.1.289c-.039.218-.1.315-.544.325-.11,0-.229.011-.348.019-.152.01-.3.02-.427.02-.245,0-.436-.035-.517-.168-.065-.106-.042-.247.069-.431a5.811,5.811,0,0,1,3.008-2.067,5.407,5.407,0,0,0,1.305-.415,3.012,3.012,0,0,1,.664-.231,6.035,6.035,0,0,1,1.075-.119.088.088,0,0,1,.069.033c.051.064.045.17-.019.345m26.845,16.3a1.463,1.463,0,0,1-.688,1.007.088.088,0,0,1-.129-.093,9.744,9.744,0,0,0-.336-3.016.088.088,0,0,1,.149-.083,2.75,2.75,0,0,1,1,2.185m.069-2.969a.537.537,0,0,0-.244.117.355.355,0,0,1-.227.1.24.24,0,0,1-.049,0c-.172-.034-.278-.242-.412-.5-.042-.082-.086-.169-.136-.258a6.134,6.134,0,0,0-1.229-1.533.717.717,0,0,1-.134-1.024,1.489,1.489,0,0,0,.107-.245c.083-.288,0-.356-.262-.584l-.034-.029c-.265-.229-.123-.68,0-1.079.04-.127.077-.247.1-.355.031-.138.055-.327.079-.527a2.806,2.806,0,0,1,.32-1.228,2.045,2.045,0,0,1,2.025-.179.891.891,0,0,1,.319.773c-.013.117-.054.3-.107.525-.07.307-.158.688-.217,1.09a.971.971,0,0,0,.182.83,2.254,2.254,0,0,1,.208.374,11.609,11.609,0,0,1,.065,3.172c-.051.459-.17.521-.359.57m5.071,1.379a5.2,5.2,0,0,0-2.823,2.349.087.087,0,0,1-.087.053.886.886,0,0,0-.3.033,3.389,3.389,0,0,0,.013,1,.089.089,0,0,1-.058.093c-.7.248-1.22,1.508-1.225,1.521a.088.088,0,0,1-.082.055h-.011a.088.088,0,0,1-.077-.075c-.526-3.748,3.732-5,4.591-5.218a.108.108,0,0,1,.118.065.1.1,0,0,1-.058.125m-1.746-4.9a1.076,1.076,0,0,1-.193.812c-.047.061-.1.139-.167.226-.44.606-.833,1.108-1.149,1.109a.282.282,0,0,1-.088-.014.089.089,0,0,1-.044-.033,2.607,2.607,0,0,1-.457-1.342,2.724,2.724,0,0,1,.368-1.636,1.417,1.417,0,0,0,.191-.454c.059-.212.119-.432.428-.421a2.426,2.426,0,0,1,.5.085.686.686,0,0,0,.34.039.142.142,0,0,1,.141.017c.224.165.128,1.208.127,1.219a2.641,2.641,0,0,0,0,.394m-1.541-1.656a2.775,2.775,0,0,1-.578,1.09.155.155,0,0,1-.126.067l-.025,0c-.1-.017-.231-.125-.455-.8a5.369,5.369,0,0,1,0-1.683.4.4,0,0,1,.265-.37.762.762,0,0,1,.709.247c.312.332.233,1.266.214,1.449m8.555,3.376c.158.044.306.267.479.524a2.1,2.1,0,0,0,.427.524l.111.075a1.3,1.3,0,0,0,.956.313c.961-.109,1.052.047,1.082.1a.164.164,0,0,1-.022.188,2.416,2.416,0,0,1-1.446.9.68.68,0,0,1-.13-.012,2.188,2.188,0,0,1-.807-.387,2.836,2.836,0,0,0-.691-.369,2.642,2.642,0,0,0-.914-.046c-.31.02-.534.034-.638-.067a.182.182,0,0,1-.055-.14,4.843,4.843,0,0,1,1.3-1.457c.167-.122.273-.165.354-.142m-1.464-.28a.984.984,0,0,0,.255.111c.19.01.432.077.486.236a.229.229,0,0,1-.1.257l-.164.143a14.416,14.416,0,0,1-1.632,1.323,1.089,1.089,0,0,1-.972.144,1.168,1.168,0,0,1-.281-.209c-.125-.116-.216-.2-.4-.162a3.833,3.833,0,0,0-.865.424c-.189.11-.367.213-.524.289a3.1,3.1,0,0,0-.43.273,1.006,1.006,0,0,1-.47.244.211.211,0,0,1-.04,0,.193.193,0,0,1-.128-.089.09.09,0,0,1-.014-.046c0-.027-.035-2.646,2.166-3.215a3.944,3.944,0,0,1,3.1.283m-2.693-2.306a1.5,1.5,0,0,1,.284,1.319c-.006.051-.066.187-.468.187-.356,0-1.662.2-1.675.2h-.014a.088.088,0,0,1-.088-.085,16.745,16.745,0,0,0-.14-1.982.164.164,0,0,1,.014-.159c.1-.141.42-.146.833-.14h.117a1.839,1.839,0,0,1,1.137.652m-10.5-11.876a4.852,4.852,0,0,0,1.483-.375l.042-.029a2.667,2.667,0,0,1,1.887-.442,43.115,43.115,0,0,1,4.607.338c1.974.249,2.04.483,2.062.56a.157.157,0,0,1-.065.17c-.168.135-.365.137-.84.141-.233,0-.552.005-.973.025s-.746.012-.974.006c-.421-.012-.578-.015-.812.166l-.155.123c-.236.189-.413.331-.566.331a.226.226,0,0,1-.057-.007.247.247,0,0,1-.165-.159.637.637,0,0,1-.009-.352c.017-.1.032-.2-.01-.247-.029-.034-.106-.075-.311-.076a4.332,4.332,0,0,0-1.191.205,5.423,5.423,0,0,1-.691.156c-.193.025-.4.075-.6.122a2.063,2.063,0,0,1-1,.094,1.327,1.327,0,0,1-.333-.184.514.514,0,0,0-.443-.136,1.976,1.976,0,0,0-.557.27,1.379,1.379,0,0,1-.542.245c-.073,0-.135.013-.189.02-.142.02-.289.041-.341-.126a.93.93,0,0,0-.077-.161.422.422,0,0,1-.079-.378c.05-.107.182-.177.415-.22.145-.027.309-.053.48-.081m-1.873,10.046a.089.089,0,0,1,.033-.082c.33-.259.726.048,1.044.294.067.052.131.1.192.144a2.268,2.268,0,0,0,1.268.249c.471-.016.568.085.6.162s0,.166-.1.256a1.412,1.412,0,0,0-.241.731c-.013.079-.026.158-.041.234a.325.325,0,0,1-.142.221.507.507,0,0,1-.279.067,2.753,2.753,0,0,1-.575-.093c-.081-.019-.162-.037-.238-.052a3.332,3.332,0,0,0-.645-.019c-.363.011-.572.013-.656-.087a.151.151,0,0,1-.032-.13,16.894,16.894,0,0,0-.192-1.894m-17.809-7.935.05-.042a2.118,2.118,0,0,1,1.424-.609,7.156,7.156,0,0,1,1.974.1c.224.038.423.058.583.073.365.036.606.06.606.278,0,.2-.411.605-.694.8-.209.143-.372.193-.484.15a1.224,1.224,0,0,1-.33-.219.761.761,0,0,0-.382-.214,3.115,3.115,0,0,0-1.417.385,4.534,4.534,0,0,1-1.361.478.223.223,0,0,1-.212-.088.939.939,0,0,1,.241-1.094m7.163,3.78a2.667,2.667,0,0,1-1.721,1.279,6.277,6.277,0,0,1-.912.024,2.46,2.46,0,0,0-.956.086,1.009,1.009,0,0,0-.32.252.907.907,0,0,1-.711.343,2.653,2.653,0,0,1-.548-.036.733.733,0,0,0-.639.108.712.712,0,0,0-.261.376.6.6,0,0,1-.588.461c-.282.026-.753.051-1.208.051l-.239,0c-.917-.019-1.057-.143-1.072-.273a2.3,2.3,0,0,1,1.427-1.636,18.2,18.2,0,0,0,2.549-.931,3.576,3.576,0,0,1,2.193-.365c.441.015.936-.01,1.372-.031.9-.045,1.416-.061,1.582.12a.207.207,0,0,1,.052.173m5.6,5.061c-.1.081-.205.173-.321.289a2,2,0,0,1-1.391.613,1.617,1.617,0,0,1-.272-.023,2.176,2.176,0,0,1-.893-.416c-.055-.038-.105-.073-.152-.1-.281-.176-.425-2.942-.119-3.878.1-.316.26-.468.451-.455.835.061,2.614,2.145,2.689,2.233a.087.087,0,0,1,.021.061.148.148,0,0,1-.059.111c-.128.1-.484.071-1.081-.038a4.619,4.619,0,0,1,1.263.757.56.56,0,0,1,.208.4c-.008.167-.149.286-.344.45m.778-.285-.022,0c-.03-.006-.082-.028-.1-.119a14.316,14.316,0,0,0-.539-1.789,2.012,2.012,0,0,0-.91-1.023.089.089,0,0,1-.042-.042.188.188,0,0,1,0-.19c.1-.15.412-.16.846-.157h.11c.416,0,.544.471.679.97l.037.137c.076.275.36.373.61.459.188.065.351.121.4.253.079.211-.171.449-.414.679a1.927,1.927,0,0,0-.241.253c-.04.061-.085.139-.13.217-.139.244-.205.353-.295.353m3.8,6.792a.082.082,0,0,1-.027,0,.089.089,0,0,1-.077-.044,2.948,2.948,0,0,0-2.18-1.268.088.088,0,0,1-.073-.128.952.952,0,0,0,.115-.748.089.089,0,0,1,.077-.123c.29-.016.373-.162.377-.168a.091.091,0,0,1,.074-.047l1.468-.078a.089.089,0,0,1,.093.08l.215,2.428a.088.088,0,0,1-.061.092m.206-5.873c-.017.069-.076.116-.187.182a.573.573,0,0,1-.294.064,4.46,4.46,0,0,1-1.114-.244c-.111-.034-.215-.065-.306-.09a.434.434,0,0,0-.459.109.646.646,0,0,1-.395.173H264.4c-.427,0-.881-.7-.9-.9a4.926,4.926,0,0,1,1.132-1.65c.322-.238.483-.292.64-.214.279.139.335.478.385.776a2.1,2.1,0,0,0,.084.373c.044.117.114.113.364.037a1.032,1.032,0,0,1,.5-.064c.291.058.289.257.288.449a1.335,1.335,0,0,0,.058.461,1.5,1.5,0,0,0,.16.338.262.262,0,0,1,.062.2m.013-14.1a.63.63,0,0,1-.533.332,3.6,3.6,0,0,1-.958-.131c-.251-.055-.511-.113-.792-.148a3.748,3.748,0,0,1-.472-.092.672.672,0,0,0-.155-.03c0,.016-.011.141-.014.2a1.6,1.6,0,0,0,.048.423c.032.149.057.266-.01.354a.255.255,0,0,1-.2.086c-.1,0-.324-.014-.6-.037a7.143,7.143,0,0,0-1.248-.041.869.869,0,0,0,.183.15c.147.1.369.255.226.475-.126.194-.368.191-.769.188a8.378,8.378,0,0,0-.9.028,8.731,8.731,0,0,0-1.05.167,5.118,5.118,0,0,1-1.131.142,4.356,4.356,0,0,1-1.172-.12c-.133-.028-.292-.062-.5-.1-.14-.026-.259-.051-.362-.072a1.4,1.4,0,0,0-1.115.067,5.463,5.463,0,0,0-.613.321,1.865,1.865,0,0,1-.728.317.275.275,0,0,1-.077-.01.217.217,0,0,1-.134-.11.513.513,0,0,1-.008-.4,1.7,1.7,0,0,1,.839-.9,4.886,4.886,0,0,0,.7-.467,3.439,3.439,0,0,1,1.046-.61,10.5,10.5,0,0,1,2.159-.127c.3,0,.557,0,.722-.008a1.277,1.277,0,0,0,1.036-.377c.249-.321.614-.415,1.5-.386l.538.02a24.334,24.334,0,0,0,3.844-.017.847.847,0,0,0,.3-.216.6.6,0,0,1,.659-.181c.863.151,1.407.295,1.455.544.02.1-.039.194-.176.279a1.076,1.076,0,0,1-.663.1.922.922,0,0,0-.583.087,1.028,1.028,0,0,0-.288.3m.738,19.321a9.477,9.477,0,0,1-.571-2,.088.088,0,0,1,.084-.1,2.717,2.717,0,0,1,1.233.347,6.825,6.825,0,0,0,.838.332,1.181,1.181,0,0,0,1.253-.484.088.088,0,0,1,.133-.014c.561.534,1.243,2.838.684,3.877a.967.967,0,0,1-.907.526,1.784,1.784,0,0,1-.4-.049,3.676,3.676,0,0,1-2.345-2.431m1.128,3.088a.089.089,0,0,1-.054-.1.087.087,0,0,1,.093-.068,5.937,5.937,0,0,1,1.5.345,2.751,2.751,0,0,1,1.883,1.821.088.088,0,0,1-.146.086,12.041,12.041,0,0,0-3.276-2.082" transform="translate(-156.768 -30.229)" fill="#95722b"></path>
    <path id="Path_537" data-name="Path 537" d="M330.45,339.685c-6.44-2.388-13.1-.148-21.536,2.688-6.4,2.154-13.663,4.594-22.494,5.559-13.969,1.524-26.634-7.218-26.76-7.307a.088.088,0,0,0-.109.139,41.008,41.008,0,0,0,8.276,5.282,38.231,38.231,0,0,0,16.581,4.05,31.739,31.739,0,0,0,3.794-.226c7.079-.853,13.551-3.191,19.81-5.453,7.83-2.829,15.226-5.5,22.4-4.561a.088.088,0,0,0,.042-.17" transform="translate(-183.602 -210.096)" fill="#95722b"></path>
  </g>
</svg>
